<svg
   width="640"
   height="480"
   version="1.1"
   xmlns="http://www.w3.org/2000/svg"
   xmlns:svg="http://www.w3.org/2000/svg">
 <g
     class="layer"
     id="g63">
    <title
       id="title58">Layer 1</title>
    <g
       id="g334"
       transform="matrix(1.1105279,0,0,1.1105279,-35.368928,-26.532249)">
      <path
         d="m 341.52,92.87 c -30.73,0 -58.04,14.71 -75.25,37.47 -14.59,-9.27 -31.9,-14.63 -50.47,-14.63 -46.87,0 -85.77,34.22 -93.06,79.04 -43.07,8.7 -75.53,46.76 -75.53,92.4 0,52.07 42.24,94.28 94.31,94.28 21.24,0 40.83,-7.03 56.59,-18.87 9.17,2.97 18.94,4.59 29.1,4.59 9.83,0 19.34,-1.52 28.25,-4.31 16.72,15.1 38.88,24.31 63.19,24.31 24.68,0 47.16,-9.48 63.97,-25 15.13,10.36 33.45,16.41 53.18,16.41 15.66,0 30.41,-3.81 43.41,-10.57 6.27,1.32 12.77,2 19.44,2 52.07,0 94.28,-42.2 94.28,-94.28 0,-52.07 -42.21,-94.28 -94.28,-94.28 -0.51,0 -1.02,0.03 -1.53,0.03 -16.79,-20.34 -41.94,-33.52 -70.19,-34.28 -15.04,-32.09 -47.62,-54.31 -85.41,-54.31 z"
         fill="#007fff"
         id="path5037" />
      <path
         d="m 341.42,88.85 c -30.77,0 -58.17,14.27 -76.19,36.44 -14.56,-8.53 -31.45,-13.56 -49.53,-13.56 -47.89,0 -87.76,34.34 -96.44,79.75 -43.6,10.06 -76.12,49.07 -76.12,95.68 0,54.24 44.05,98.29 98.28,98.29 21.38,0 41.18,-6.9 57.31,-18.5 9.01,2.71 18.53,4.21 28.41,4.21 9.48,0 18.63,-1.39 27.31,-3.9 17.22,14.85 39.62,23.9 64.12,23.9 24.6,0 47.05,-9.14 64.29,-24.09 15.27,9.77 33.38,15.5 52.84,15.5 15.81,0 30.75,-3.79 44,-10.44 6.12,1.19 12.42,1.88 18.87,1.88 54.24,0 98.29,-44.05 98.29,-98.28 0,-54.18 -43.95,-98.18 -98.1,-98.29 C 481.77,157.7 457.03,144.79 429.29,143.38 413.17,111.11 379.91,88.85 341.42,88.85 Z m 0,8 c 36.22,0 67.41,21.31 81.81,52.03 a 4,4 0 0 0 3.53,2.31 c 27.07,0.73 51.12,13.34 67.19,32.82 a 4,4 0 0 0 3.16,1.47 c 0.58,-0.01 1.08,-0.04 1.47,-0.04 49.91,0 90.28,40.37 90.28,90.29 0,49.92 -40.37,90.28 -90.28,90.28 -6.41,0 -12.65,-0.65 -18.66,-1.91 a 4,4 0 0 0 -2.66,0.34 c -12.43,6.46 -26.56,10.13 -41.56,10.13 -18.92,0 -36.43,-5.82 -50.94,-15.75 a 4,4 0 0 0 -4.97,0.37 c -16.1,14.88 -37.56,23.97 -61.21,23.97 -23.3,0 -44.49,-8.81 -60.5,-23.28 a 4,4 0 0 0 -3.88,-0.84 c -8.54,2.68 -17.63,4.12 -27.06,4.12 -9.74,0 -19.09,-1.55 -27.88,-4.4 a 4,4 0 0 0 -3.65,0.62 c -15.1,11.35 -33.84,18.06 -54.19,18.06 -49.91,0 -90.28,-40.37 -90.28,-90.28 0,-43.75 31.06,-80.17 72.31,-88.5 a 4,4 0 0 0 3.16,-3.25 c 6.98,-42.91 44.16,-75.68 89.09,-75.68 17.8,0 34.34,5.12 48.31,14 a 4,4 0 0 0 5.35,-0.97 c 16.48,-21.81 42.59,-35.91 72.06,-35.91 z"
         fill="#003f7f"
         id="path5039" />
      <path
         d="m 340.12,105.64 c -35.26,0 -65.63,21.44 -79.56,52.31 0.11,0.07 0.2,0.15 0.31,0.22 16.01,-21.79 41.41,-35.87 70,-35.87 28.68,0 54.15,14.18 70.16,36.09 -0.22,0.04 -0.44,0.08 -0.66,0.12 3.46,4.86 6.47,10.08 8.97,15.6 5.42,0.15 10.73,0.8 15.87,1.9 0.16,0.04 0.32,0.07 0.47,0.1 12.65,2.79 24.3,8.32 34.35,16 -0.14,0.03 -0.28,0.06 -0.41,0.09 5.2,3.73 9.94,7.98 14.16,12.6 0.51,-0.01 1.02,-0.03 1.53,-0.03 52.16,0 94.44,38.2 94.44,85.31 0,12.12 -2.8,23.65 -7.85,34.09 11.2,-14.02 17.81,-31.21 17.81,-49.81 0,-47.11 -42.27,-85.31 -94.43,-85.31 -0.43,0 -0.86,0.02 -1.28,0.03 -15.8,-18.91 -38.86,-31.11 -64.72,-31.97 -14.11,-30.41 -44.23,-51.47 -79.16,-51.47 z m -123.94,21.12 c -2.21,-0.03 -4.41,0.04 -6.66,0.19 -34.25,2.28 -62.25,25.82 -73.06,57.6 13.68,-23.06 37.39,-39.05 65.31,-40.91 16.44,-1.09 32.11,2.86 45.6,10.59 3.27,-5.24 7.11,-10.08 11.37,-14.46 -12.49,-8.04 -27.09,-12.75 -42.56,-13 z m 128.62,29.85 c -24.87,0.06 -47.76,10.1 -64.16,26.53 1.87,1.34 3.72,2.72 5.47,4.19 17.63,-12.54 39.98,-18.89 63.5,-16.25 49.61,5.57 85.44,49.04 80.03,97.12 -0.67,5.98 -1.93,11.78 -3.75,17.28 5.1,-9.4 8.46,-19.9 9.72,-31.12 5.4,-48.09 -30.42,-91.58 -80.03,-97.16 -3.62,-0.4 -7.23,-0.6 -10.78,-0.59 z m -151.94,25.22 c -6.93,0 -13.97,0.8 -21.03,2.44 -20.47,4.75 -37.74,15.89 -50.06,30.71 0.86,-4.6 2.12,-9.05 3.68,-13.37 -26.66,6.96 -48.43,25.44 -59.31,49.59 12.85,-17.27 32,-29.86 54.22,-34.5 -12.48,15.79 -19.47,35.49 -19,56 5.42,-34.77 32.13,-64.74 69.47,-73.4 22.7,-5.27 45.31,-1.74 64.09,8.31 4.42,-2.55 9.13,-4.74 14.04,-6.56 -15.57,-12.22 -35.3,-19.24 -56.1,-19.22 z"
         fill="#56aaff"
         id="path5041" />
    </g>
  </g>
</svg>
