<?xml version="1.0" encoding="UTF-8" standalone="no"?>
<!DOCTYPE svg PUBLIC "-//W3C//DTD SVG 1.1//EN" "http://www.w3.org/Graphics/SVG/1.1/DTD/svg11.dtd">
<svg width="100%" height="100%" viewBox="0 0 868 851" version="1.1" xmlns="http://www.w3.org/2000/svg" xmlns:xlink="http://www.w3.org/1999/xlink" xml:space="preserve" xmlns:serif="http://www.serif.com/" style="fill-rule:evenodd;clip-rule:evenodd;stroke-linejoin:round;stroke-miterlimit:2;">
    <g transform="matrix(1,0,0,1,-1264,-2684)">
        <g transform="matrix(1,0,0,1,-5602,2109.87)">
            <g transform="matrix(1,0,0,1,480.385,-275)">
                <g id="stack" transform="matrix(1,0,0,1,0,100)">
                    <g transform="matrix(0.866025,-0.5,1,0.57735,6559.81,-1559.87)">
                        <rect x="-2959.87" y="2390.12" width="500" height="433.013" style="fill:rgb(0,87,215);"/>
                    </g>
                    <g transform="matrix(0.866025,0.5,-5.55112e-17,1.1547,6083.49,-2084.87)">
                        <rect x="350" y="2779.83" width="500" height="43.301" style="fill:rgb(0,48,119);"/>
                    </g>
                    <g transform="matrix(0.866025,-0.5,5.55112e-17,1.1547,6083.49,-2084.87)">
                        <rect x="850" y="3515.95" width="500" height="43.301" style="fill:rgb(43,100,184);"/>
                    </g>
                </g>
                <g id="stack1" serif:id="stack" transform="matrix(1,0,0,1,-9.09495e-13,-47.6497)">
                    <g opacity="0.65">
                        <g transform="matrix(0.866025,-0.5,1,0.57735,6559.81,-1559.87)">
                            <rect x="-2959.87" y="2390.12" width="500" height="433.013" style="fill:rgb(0,87,215);"/>
                        </g>
                        <g transform="matrix(0.866025,0.5,-5.55112e-17,1.1547,6083.49,-2084.87)">
                            <rect x="350" y="2779.83" width="500" height="43.301" style="fill:rgb(0,48,119);"/>
                        </g>
                        <g transform="matrix(0.866025,-0.5,5.55112e-17,1.1547,6083.49,-2084.87)">
                            <rect x="850" y="3515.95" width="500" height="43.301" style="fill:rgb(43,100,184);"/>
                        </g>
                    </g>
                </g>
                <g id="stack2" serif:id="stack" transform="matrix(1,0,0,1,0,-200)">
                    <g opacity="0.35">
                        <g transform="matrix(0.866025,-0.5,1,0.57735,6559.81,-1559.87)">
                            <rect x="-2959.87" y="2390.12" width="500" height="433.013" style="fill:rgb(0,87,215);"/>
                        </g>
                        <g transform="matrix(0.866025,0.5,-5.55112e-17,1.1547,6083.49,-2084.87)">
                            <rect x="350" y="2779.83" width="500" height="43.301" style="fill:rgb(0,48,119);"/>
                        </g>
                        <g transform="matrix(0.866025,-0.5,5.55112e-17,1.1547,6083.49,-2084.87)">
                            <rect x="850" y="3515.95" width="500" height="43.301" style="fill:rgb(43,100,184);"/>
                        </g>
                    </g>
                </g>
            </g>
        </g>
    </g>
</svg>
